<svg xmlns="http://www.w3.org/2000/svg" enable-background="new 0 0 66 66" viewBox="0 0 66 66" id="StaffTurnover"><path d="M62.1 55l-6.1-1.9v-2.2c3-2.7 4.9-7.6 4.9-11.2 0-5.2-4.2-9.5-9.5-9.5s-9.5 4.3-9.5 9.5c0 3.6 1.9 8.5 4.9 11.2v2.2L40.9 55c-1.7.5-2.9 2.1-2.9 3.9V64c0 .5.4 1 1 1h25c.5 0 1-.4 1-1v-5.1C65 57.1 63.8 55.5 62.1 55zM54.1 53.8c0 1.6-5.2 1.6-5.2 0v-1.6c1.8.9 3.5.8 5.2 0V53.8zM45.6 45.6c.9-1.2 1.5-3.5 1.6-5.8 1.5.9 3.2 1.3 5 1.3 1.6-.1 3-.5 4.2-1.3.2 1.4.6 3.2 1.6 4.1.1.1.2.1.3.2C55.2 51.9 49.5 53.7 45.6 45.6zM25.1 25.7L19 23.8v-2.2c3-2.7 4.9-7.6 4.9-11.2 0-5.2-4.2-9.5-9.5-9.5C9.3 1 5 5.3 5 10.5c0 3.6 1.9 8.5 4.9 11.2v2.2l-6.1 1.9C2.2 26.2 1 27.8 1 29.6v5.2c0 .5.4 1 1 1h25c.5 0 1-.4 1-1v-5.2C27.9 27.8 26.8 26.2 25.1 25.7zM17.1 24.5c0 1.6-5.2 1.6-5.2 0v-1.6c1.7.8 3.4.9 5.2 0V24.5zM8.5 16.3c.9-1.2 1.5-3.5 1.6-5.8 1.5.9 3.2 1.3 5 1.3 1.6-.1 3-.5 4.2-1.3.2 1.4.6 3.2 1.6 4.1.1.1.2.1.3.2C18.1 22.8 12.4 24.4 8.5 16.3zM26.5 49.5l-2.7-.8c-.2-.5-.3-.9-.6-1.4l1.4-2.5c.2-.4.1-.9-.2-1.2l-2.1-2.1c-.3-.3-.8-.4-1.2-.2l-2.5 1.4c-.4-.2-.9-.4-1.4-.6l-.8-2.7c-.1-.4-.5-.7-.9-.7h-3c-.4 0-.8.3-.9.7l-.8 2.7c-.5.2-.9.3-1.4.6l-2.5-1.4c-.4-.2-.9-.1-1.2.2l-2.1 2.1c-.3.3-.4.8-.2 1.2L5 47.3c-.2.4-.4.9-.6 1.4l-2.7.8C1.3 49.6 1 50 1 50.4v3c0 .4.3.8.7.9l2.7.8C4.6 55.6 4.8 56 5 56.5l-1.4 2.5c-.2.4-.1.8.2 1.2l2.1 2.1c.3.3.8.4 1.2.2L9.5 61c.4.2.9.4 1.4.6l.8 2.7c.1.4.5.7.9.7h3c.4 0 .8-.3.9-.7l.8-2.7c.5-.2.9-.3 1.4-.6l2.5 1.4c.4.2.8.1 1.2-.2l2.1-2.1c.3-.3.4-.8.2-1.2l-1.4-2.5c.2-.4.4-.9.6-1.3l2.7-.8c.4-.1.7-.5.7-.9v-3C27.2 50 26.9 49.6 26.5 49.5zM14.1 56.8c-2.7 0-4.9-2.2-4.9-4.9 0-2.7 2.2-4.9 4.9-4.9 2.7 0 4.9 2.2 4.9 4.9C19 54.6 16.8 56.8 14.1 56.8zM64.3 11.7l-2.7-.8c-.2-.5-.3-.9-.6-1.3l1.4-2.5c.2-.4.1-.9-.2-1.2l-2.1-2.1c-.3-.3-.8-.4-1.2-.2L56.5 5c-.4-.2-.9-.4-1.4-.6l-.8-2.7C54.2 1.3 53.8 1 53.4 1h-3c-.4 0-.8.3-.9.7l-.8 2.7c-.5.2-.9.3-1.3.6l-2.5-1.4c-.4-.2-.8-.1-1.2.2l-2.1 2.1c-.3.3-.4.8-.2 1.2l1.4 2.5c-.2.4-.4.9-.6 1.3l-2.7.8c-.4.1-.7.5-.7.9v3c0 .4.3.8.7.9l2.7.8c.2.5.3.9.6 1.3l-1.4 2.5c-.2.4-.1.9.2 1.2l2.1 2.1c.3.3.8.4 1.2.2l2.5-1.4c.4.2.9.4 1.3.6l.8 2.7c.1.4.5.7.9.7h3c.4 0 .8-.3.9-.7l.8-2.7c.5-.2.9-.3 1.4-.6l2.5 1.4c.4.2.9.1 1.2-.2l2.1-2.1c.3-.3.4-.8.2-1.2L61 18.7c.2-.4.4-.9.6-1.3l2.7-.8c.4-.1.7-.5.7-.9v-3C65 12.2 64.7 11.8 64.3 11.7zM51.9 19c-2.7 0-4.9-2.2-4.9-4.9s2.2-4.9 4.9-4.9c2.7 0 4.9 2.2 4.9 4.9S54.6 19 51.9 19z" fill="#ffffff" class="color000000 svgShape"></path><g fill="#ffffff" class="color000000 svgShape"><path d="M36.3,57.6c-0.1,0.4-0.1,0.9-0.1,1.3v0.8c-2.4-1.1-4.1-3.5-4.1-6.4v-16c0-1.7-0.9-3.2-2.2-4.2v-2.2
				c2.4,1.1,4.1,3.5,4.1,6.4v16C34,55.1,34.9,56.7,36.3,57.6z" fill="#ffffff" class="color000000 svgShape"></path></g></svg>