<svg xmlns="http://www.w3.org/2000/svg" viewBox="0 0 692.672 1010" id="Mobile"><path fill="#ffffff" d="M591.976 0H100.695C45.08.157.179 45.057 0 100.695v808.61C.18 964.92 45.08 1009.82 100.695 1010h491.28c55.617-.179 100.539-45.08 100.697-100.695v-808.61C692.514 45.057 647.592.157 591.975 0zM299.014 27.46h94.642c5.873 0 10.648 4.774 10.648 10.67s-4.775 10.693-10.648 10.693h-94.642c-5.873 0-10.648-4.797-10.648-10.693s4.775-10.67 10.648-10.67zm47.32 934.725c-17.417 0-31.562-14.1-31.562-31.518 0-17.44 14.145-31.563 31.563-31.563s31.562 14.123 31.562 31.563c0 17.419-14.144 31.518-31.562 31.518zm273.078-133.49-.134-.203c-.896 14.123-13.002 25.824-27.303 25.87h-491.28c-14.84-.046-27.438-12.598-27.438-27.462V109.84c0-14.861 12.598-27.437 27.438-27.46h491.28c14.863.023 27.438 12.599 27.438 27.46v718.855z" class="color545454 svgShape"></path><path fill="#ffffff" d="M256.804 513.675v256.691c0 9.842-8.07 17.89-17.911 17.89h-83.569c-9.863 0-17.91-8.048-17.91-17.89V513.675c0-9.863 8.047-17.888 17.91-17.888h83.569c9.84 0 17.911 8.025 17.911 17.888zM406.031 424.144v346.222c0 9.842-8.07 17.89-17.91 17.89h-83.57c-9.84 0-17.91-8.048-17.91-17.89V424.144c0-9.841 8.07-17.912 17.91-17.912h83.57c9.84 0 17.91 8.07 17.91 17.912zM555.258 334.59v435.776c0 9.842-8.047 17.89-17.911 17.89h-83.57c-9.863 0-17.909-8.048-17.909-17.89V334.59c0-9.84 8.046-17.888 17.91-17.888h83.569c9.864 0 17.91 8.047 17.91 17.888z" class="colordab466 svgShape"></path></svg>